<svg xmlns="http://www.w3.org/2000/svg" viewBox="0 0 108 108" width="432" height="432" role="img" aria-label="Flow launcher icon: Pill"><title>Flow launcher icon: Pill</title><rect width="108" height="108" fill="#FFF8F6"/><path d="M31.02 41.63L41.63 31.02C51.39 21.26 67.22 21.26 76.98 31.02C86.74 40.78 86.74 56.61 76.98 66.37L66.37 76.98C56.61 86.74 40.78 86.74 31.02 76.98C21.26 67.22 21.26 51.39 31.02 41.63Z" fill="#EB0000"/><path d="M48.17 67Q46.02 67 44.71 65.43Q43.39 63.85 43.78 61.64L46.53 45.98Q46.9 43.91 48.64 42.46Q50.37 41 52.46 41H61.16Q63.17 41 64.37 42.42Q65.56 43.84 65.24 45.73Q64.99 47.14 63.77 48.15Q62.56 49.16 61.16 49.16H55.15L54.68 51.82H58.89Q60.61 51.82 61.61 53.03Q62.61 54.24 62.33 55.83Q62.12 57.03 61.1 57.88Q60.07 58.73 58.89 58.73H53.46L52.67 63.2Q52.41 64.72 51.09 65.86Q49.78 67 48.17 67Z" fill="#FFFFFF"/></svg>
